<mxfile host="app.diagrams.net" modified="2022-04-15T02:25:02.470Z" agent="5.0 (Macintosh; Intel Mac OS X 10_15_7) AppleWebKit/537.36 (KHTML, like Gecko) Chrome/99.0.4844.51 Safari/537.36" etag="XWyuiCmZ5wdlYkU59ndq" version="16.4.6" type="github">
  <diagram id="f0msxIQo65gbQxGcwO3Z" name="第 1 页">
    <mxGraphModel dx="773" dy="567" grid="1" gridSize="10" guides="1" tooltips="1" connect="1" arrows="1" fold="1" page="1" pageScale="1" pageWidth="827" pageHeight="1169" math="0" shadow="0">
      <root>
        <mxCell id="0" />
        <mxCell id="1" parent="0" />
        <mxCell id="pBAzN2nNi2tOoJFEGXM5-9" style="edgeStyle=orthogonalEdgeStyle;rounded=0;orthogonalLoop=1;jettySize=auto;html=1;entryX=0;entryY=0.5;entryDx=0;entryDy=0;" edge="1" parent="1" source="pBAzN2nNi2tOoJFEGXM5-6" target="pBAzN2nNi2tOoJFEGXM5-7">
          <mxGeometry relative="1" as="geometry" />
        </mxCell>
        <mxCell id="pBAzN2nNi2tOoJFEGXM5-10" style="edgeStyle=orthogonalEdgeStyle;rounded=0;orthogonalLoop=1;jettySize=auto;html=1;exitX=1;exitY=0.5;exitDx=0;exitDy=0;entryX=0;entryY=0.5;entryDx=0;entryDy=0;" edge="1" parent="1" source="pBAzN2nNi2tOoJFEGXM5-6" target="pBAzN2nNi2tOoJFEGXM5-8">
          <mxGeometry relative="1" as="geometry" />
        </mxCell>
        <mxCell id="pBAzN2nNi2tOoJFEGXM5-6" value="主启动类中&lt;br&gt;main方法里面的run()" style="rounded=1;whiteSpace=wrap;html=1;" vertex="1" parent="1">
          <mxGeometry x="60" y="90" width="120" height="60" as="geometry" />
        </mxCell>
        <mxCell id="pBAzN2nNi2tOoJFEGXM5-7" value="创建SpringApplication" style="rounded=0;whiteSpace=wrap;html=1;" vertex="1" parent="1">
          <mxGeometry x="290" y="40" width="120" height="60" as="geometry" />
        </mxCell>
        <mxCell id="pBAzN2nNi2tOoJFEGXM5-8" value="执行run()方法" style="rounded=0;whiteSpace=wrap;html=1;" vertex="1" parent="1">
          <mxGeometry x="290" y="150" width="120" height="60" as="geometry" />
        </mxCell>
      </root>
    </mxGraphModel>
  </diagram>
</mxfile>
